HIERARCHY
ROOT reference
{
  OFFSET 0 0 0
  CHANNELS 6 Xposition Yposition Zposition Zrotation Xrotation Yrotation
  JOINT Hips
  {
    OFFSET 11.6956 67.6413 131.638
    CHANNELS 6 Xposition Yposition Zposition Zrotation Xrotation Yrotation
    JOINT Spine
    {
      OFFSET 0 7.81434 0
      CHANNELS 6 Xposition Yposition Zposition Zrotation Xrotation Yrotation
      JOINT Spine1
      {
        OFFSET 0 23.3781 0
        CHANNELS 6 Xposition Yposition Zposition Zrotation Xrotation Yrotation
        JOINT Neck
        {
          OFFSET 0 23.2821 2.11656
          CHANNELS 6 Xposition Yposition Zposition Zrotation Xrotation Yrotation
          JOINT Head
          {
            OFFSET 0 13.3416 -1.90594
            CHANNELS 6 Xposition Yposition Zposition Zrotation Xrotation Yrotation
            End Site
            {
              OFFSET 0 23.8242 0
            }
          }
        }
        JOINT LeftShoulder
        {
          OFFSET 3.82472 21.4916 -0.175476
          CHANNELS 6 Xposition Yposition Zposition Zrotation Xrotation Yrotation
          JOINT LeftArm
          {
            OFFSET 10.8239 0 0
            CHANNELS 6 Xposition Yposition Zposition Zrotation Xrotation Yrotation
            JOINT LeftForeArm
            {
              OFFSET 28.5356 0 0
              CHANNELS 6 Xposition Yposition Zposition Zrotation Xrotation Yrotation
              JOINT LeftHand
              {
                OFFSET 24.5315 0 0
                CHANNELS 6 Xposition Yposition Zposition Zrotation Xrotation Yrotation
                End Site
                {
                  OFFSET 14.2945 0 0
                }
              }
            }
          }
        }
        JOINT RightShoulder
        {
          OFFSET -3.77033 21.4916 -0.175476
          CHANNELS 6 Xposition Yposition Zposition Zrotation Xrotation Yrotation
          JOINT RightArm
          {
            OFFSET -10.8239 0 0
            CHANNELS 6 Xposition Yposition Zposition Zrotation Xrotation Yrotation
            JOINT RightForeArm
            {
              OFFSET -28.5356 0 0
              CHANNELS 6 Xposition Yposition Zposition Zrotation Xrotation Yrotation
              JOINT RightHand
              {
                OFFSET -24.5315 0 0
                CHANNELS 6 Xposition Yposition Zposition Zrotation Xrotation Yrotation
                End Site
                {
                  OFFSET -14.2945 0 0
                }
              }
            }
          }
        }
      }
    }
    JOINT LeftUpLeg
    {
      OFFSET 9.52968 0 0
      CHANNELS 6 Xposition Yposition Zposition Zrotation Xrotation Yrotation
      JOINT LeftLeg
      {
        OFFSET 0 -40.1884 0
        CHANNELS 6 Xposition Yposition Zposition Zrotation Xrotation Yrotation
        JOINT LeftFoot
        {
          OFFSET 0 -39.9954 0
          CHANNELS 6 Xposition Yposition Zposition Zrotation Xrotation Yrotation
          JOINT LeftToeBase
          {
            OFFSET 0 -6.19429 14.2945
            CHANNELS 6 Xposition Yposition Zposition Zrotation Xrotation Yrotation
            End Site
            {
              OFFSET 0 0 3.81187
            }
          }
        }
      }
    }
    JOINT RightUpLeg
    {
      OFFSET -9.52968 0 0
      CHANNELS 6 Xposition Yposition Zposition Zrotation Xrotation Yrotation
      JOINT RightLeg
      {
        OFFSET 0 -40.1884 0
        CHANNELS 6 Xposition Yposition Zposition Zrotation Xrotation Yrotation
        JOINT RightFoot
        {
          OFFSET 0 -39.9954 0
          CHANNELS 6 Xposition Yposition Zposition Zrotation Xrotation Yrotation
          JOINT RightToeBase
          {
            OFFSET 0 -6.19429 14.2945
            CHANNELS 6 Xposition Yposition Zposition Zrotation Xrotation Yrotation
            End Site
            {
              OFFSET 0 0 3.81187
            }
          }
        }
      }
    }
  }
}
MOTION
Frames:	8
Frame Time:	0.004
0 0 0 0 0 -0 -16.7725 80.8669 -195.637 0.171042 -1.44566 2.56534 -1.77636e-015 7.81434 0 -1.03197 -2.98384 -0.45523 5.32907e-015 23.3781 2.84217e-014 -1.12462 -2.06977 -0.448623 3.55271e-015 23.2821 2.11656 3.07362 25.1331 1.25917 3.55271e-015 13.3416 -1.90594 -3.26942 -2.83385 1.03801 3.82472 21.4916 -0.175476 17.8341 -0.396036 4.01538 10.8239 0 0 -19.7869 3.96183 1.44281 28.5356 0 0 5.08882 -2.70228 1.80312 24.5315 0 2.84217e-014 -7.45821 -2.64129 -2.14174 -3.77033 21.4916 -0.175476 -13.4467 -1.15268 10.0819 -10.8239 0 -2.84217e-014 11.8825 -2.025 -0.217284 -28.5356 -2.84217e-014 -2.84217e-014 0.689924 8.13355 0.204832 -24.5315 0 2.84217e-014 -3.42036 8.02302 3.7004 9.52968 0 0 5.27651 17.2952 -60.0718 2.84217e-014 -40.1884 0 10.8808 -20.7019 46.9755 0 -39.9954 0 8.56818 3.13089 14.1506 8.88178e-016 -6.19429 14.2945 -3.23025e-016 0 -0 -9.52968 -1.42109e-014 0 -1.69681 5.66871 -0.55265 0 -40.1884 0 3.10715 -0.888684 -0.175717 3.55271e-015 -39.9954 0 -4.91278 -12.5361 3.85 3.55271e-015 -6.19429 14.2945 -6.62086e-032 -1.59028e-015 -2.38542e-015 
0 0 0 0 0 -0 -16.7725 80.8669 -195.637 0.170999 -1.45655 2.54449 0 7.81434 0 -1.03197 -2.98384 -0.45523 0 23.3781 0 -1.13573 -2.04878 -0.448617 0 23.2821 2.11656 2.90951 25.0109 1.25791 -1.77636e-015 13.3416 -1.90594 -3.02195 -2.58138 1.05781 3.82472 21.4916 -0.175476 17.8327 -0.376497 4.01537 10.8239 0 0 -19.7862 3.90239 1.45384 28.5356 2.84217e-014 -2.84217e-014 5.08882 -2.70228 1.80312 24.5315 0 0 -7.44877 -2.64125 -2.16878 -3.77033 21.4916 -0.175476 -13.4214 -1.28677 10.1426 -10.8239 2.84217e-014 0 11.8715 -1.93762 -0.298981 -28.5356 0 0 0.689895 8.14166 0.204836 -24.5315 0 0 -3.40942 8.03139 3.70047 9.52968 0 -2.84217e-014 1.22584 10.3147 0.677858 -8.88178e-016 -40.1884 -2.84217e-014 -4.82474 -6.61007 -3.1105 8.88178e-016 -39.9954 2.84217e-014 7.05559 -10.2034 2.42949 0 -6.19429 14.2945 -7.95139e-016 -1.59028e-015 3.97569e-016 -9.52968 -1.42109e-014 2.84217e-014 -1.69681 5.66871 -0.55265 3.55271e-015 -40.1884 -2.84217e-014 3.10747 -0.879509 -0.156857 3.55271e-015 -39.9954 0 -4.93862 -12.5361 3.85104 0 -6.19429 14.2945 9.93923e-016 1.59028e-015 7.95139e-016 
0 0 0 0 0 -0 -16.7725 80.8669 -195.64 0.170819 -1.45867 2.53373 3.55271e-015 7.81434 0 -1.03199 -2.9859 -0.455231 1.77636e-015 23.3781 -2.84217e-014 -1.13852 -2.03244 -0.448612 3.55271e-015 23.2821 2.11656 3.04998 25.0835 1.2586 0 13.3416 -1.90594 -3.26055 -2.67153 1.03082 3.82472 21.4916 -0.175476 17.8304 -0.402115 4.01539 10.8239 -2.84217e-014 2.84217e-014 -19.7885 3.93705 1.47504 28.5356 0 0 5.08893 -2.70563 1.80315 24.5315 2.84217e-014 2.84217e-014 -7.44319 -2.64421 -2.17838 -3.77033 21.4916 -0.175476 -13.4209 -1.28767 10.1577 -10.8239 2.84217e-014 0 11.8617 -1.96263 -0.305209 -28.5356 0 -2.84217e-014 0.690772 8.15267 0.198375 -24.5315 2.84217e-014 0 -3.37475 8.04353 3.70121 9.52968 0 -2.84217e-014 1.22323 10.2786 0.924171 0 -40.1884 0 -4.85097 -6.51195 -3.36958 -8.88178e-016 -39.9954 0 7.06766 -10.259 2.46083 -1.77636e-015 -6.19429 14.2945 2.98177e-016 0 1.19271e-015 -9.52968 0 0 -1.69681 5.66871 -0.55265 -3.55271e-015 -40.1884 2.84217e-014 3.10744 -0.864393 -0.161646 3.55271e-015 -39.9954 0 -4.93277 -12.5358 3.86628 0 -6.19429 14.2945 5.96354e-016 1.59028e-015 -7.95139e-016 
0 0 0 0 0 -0 -16.7725 80.8669 -195.644 0.170955 -1.46768 2.52351 1.77636e-015 7.81434 2.84217e-014 -1.03188 -2.9717 -0.455225 0 23.3781 2.84217e-014 -1.14006 -2.03308 -0.448613 0 23.2821 2.11656 2.91083 24.9995 1.24039 0 13.3416 -1.90594 -3.0409 -2.50326 1.03829 3.82472 21.4916 -0.175476 17.8444 -0.389386 4.01538 10.8239 0 -2.84217e-014 -19.7878 3.90397 1.47661 28.5356 -2.84217e-014 0 5.08873 -2.68945 1.80986 24.5315 2.84217e-014 -2.84217e-014 -7.43235 -2.62777 -2.18755 -3.77033 21.4916 -0.175476 -13.4176 -1.29512 10.1743 -10.8239 0 2.84217e-014 11.8551 -1.96264 -0.31091 -28.5356 2.84217e-014 0 0.69238 8.15265 0.187039 -24.5315 -2.84217e-014 0 -3.379 8.04383 3.68702 9.52968 1.42109e-014 0 1.23461 10.2801 0.938104 8.88178e-016 -40.1884 2.84217e-014 -4.8615 -6.49799 -3.38422 8.88178e-016 -39.9954 0 7.07934 -10.2796 2.47407 0 -6.19429 14.2945 -1.98785e-016 -1.59028e-015 -3.97569e-016 -9.52968 -1.42109e-014 2.84217e-014 -1.68574 5.66871 -0.55265 0 -40.1884 0 3.09574 -0.862594 -0.168553 3.55271e-015 -39.9954 -2.84217e-014 -4.93502 -12.5355 3.88838 3.55271e-015 -6.19429 14.2945 1.19271e-015 3.18055e-015 -0 
0 0 0 0 0 -0 -16.7725 80.8669 -195.647 0.170955 -1.47587 2.50953 -1.77636e-015 7.81434 0 -1.03184 -2.96673 -0.455223 0 23.3781 -2.84217e-014 -1.14127 -2.02027 -0.448609 0 23.2821 2.11656 3.05334 25.0799 1.23781 -1.77636e-015 13.3416 -1.90594 -3.28445 -2.59917 1.00743 3.82472 21.4916 -0.175476 17.8305 -0.392596 4.00636 10.8239 0 -2.84217e-014 -19.7889 3.91311 1.49006 28.5356 0 0 5.08998 -2.68668 1.81629 24.5315 0 -2.84217e-014 -7.41598 -2.6254 -2.19229 -3.77033 21.4916 -0.175476 -13.429 -1.30013 10.187 -10.8239 2.84217e-014 -2.84217e-014 11.8551 -1.97446 -0.320036 -28.5356 0 0 0.690668 8.1495 0.184167 -24.5315 2.84217e-014 2.84217e-014 -3.37149 8.04091 3.68784 9.52968 -1.42109e-014 0 1.23092 10.2938 0.939157 0 -40.1884 -2.84217e-014 -4.85972 -6.50547 -3.36947 0 -39.9954 0 7.0683 -10.276 2.47854 -1.77636e-015 -6.19429 14.2945 -1.3418e-015 -3.18055e-015 3.97569e-016 -9.52968 0 0 -1.68542 5.66871 -0.55265 0 -40.1884 -2.84217e-014 3.09592 -0.86398 -0.146953 3.55271e-015 -39.9954 0 -4.9456 -12.5355 3.88869 -3.55271e-015 -6.19429 14.2945 1.59028e-015 1.59028e-015 7.95139e-016 
0 0 0 0 0 -0 -16.7725 80.8669 -195.65 0.170913 -1.48091 2.49938 0 7.81434 0 -1.03167 -2.96336 -0.452477 -3.55271e-015 23.3781 0 -1.1424 -2.01071 -0.445866 1.77636e-015 23.2821 2.11656 2.88377 24.9916 1.22566 -3.55271e-015 13.3416 -1.90594 -3.03358 -2.42371 1.02372 3.82472 21.4916 -0.175476 17.8256 -0.391257 4.00805 10.8239 2.84217e-014 0 -19.7892 3.90824 1.49509 28.5356 0 2.84217e-014 5.07509 -2.67507 1.81459 24.5315 0 0 -7.3536 -2.61491 -2.18841 -3.77033 21.4916 -0.175476 -13.4402 -1.308 10.1976 -10.8239 2.84217e-014 -2.84217e-014 11.8569 -1.9719 -0.322697 -28.5356 0 0 0.683286 8.13756 0.179209 -24.5315 2.84217e-014 0 -3.33152 8.03057 3.67808 9.52968 0 2.84217e-014 1.23285 10.2946 0.94139 0 -40.1884 0 -4.85761 -6.50296 -3.36479 1.77636e-015 -39.9954 2.84217e-014 7.05378 -10.2808 2.46989 -1.77636e-015 -6.19429 14.2945 4.96962e-017 1.59028e-015 3.97569e-016 -9.52968 -1.42109e-014 2.84217e-014 -1.68255 5.66871 -0.55265 3.55271e-015 -40.1884 -2.84217e-014 3.09518 -0.867965 -0.183214 0 -39.9954 0 -4.93116 -12.535 3.92657 0 -6.19429 14.2945 -5.96354e-016 -1.59028e-015 -0 
0 0 0 0 0 -0 -16.7725 80.8669 -195.653 0.170841 -1.48584 2.48833 1.77636e-015 7.81434 0 -1.027 -2.96137 -0.447783 -3.55271e-015 23.3781 0 -1.14366 -1.9995 -0.441309 -1.77636e-015 23.2821 2.11656 3.04068 25.0719 1.21848 0 13.3416 -1.90594 -3.29161 -2.52735 0.986795 3.82472 21.4916 -0.175476 17.8328 -0.400587 4.00903 10.8239 0 2.84217e-014 -19.8001 3.91922 1.51215 28.5356 0 0 5.07719 -2.67351 1.81786 24.5315 -2.84217e-014 2.84217e-014 -7.36087 -2.61281 -2.19773 -3.77033 21.4916 -0.175476 -13.4483 -1.30923 10.2104 -10.8239 0 0 11.859 -1.96914 -0.327642 -28.5356 2.84217e-014 2.84217e-014 0.679518 8.116 0.171384 -24.5315 2.84217e-014 0 -3.36772 8.00768 3.68523 9.52968 0 0 1.23572 10.2987 0.943797 0 -40.1884 0 -4.85586 -6.49858 -3.36872 0 -39.9954 0 7.07074 -10.2865 2.48207 0 -6.19429 14.2945 -7.45443e-016 0 -0 -9.52968 0 0 -1.67925 5.66871 -0.55265 -7.10543e-015 -40.1884 -2.84217e-014 3.09539 -0.861301 -0.162763 -3.55271e-015 -39.9954 0 -4.92528 -12.5351 3.92064 0 -6.19429 14.2945 -1.98785e-016 -3.18055e-015 7.95139e-016 
0 0 0 0 0 -0 -16.7725 80.8669 -195.657 0.170647 -1.48974 2.47436 -3.55271e-015 7.81434 0 -1.0191 -2.96085 -0.44317 0 23.3781 0 -1.14618 -1.98716 -0.43682 0 23.2821 2.11656 3.02868 25.068 1.21025 0 13.3416 -1.90594 -3.2879 -2.49012 0.978776 3.82472 21.4916 -0.175476 17.8229 -0.393628 4.01011 10.8239 0 2.84217e-014 -19.7882 3.90044 1.50995 28.5356 0 0 5.06696 -2.66951 1.82794 24.5315 -2.84217e-014 0 -7.32308 -2.60954 -2.20185 -3.77033 21.4916 -0.175476 -13.4564 -1.32518 10.2234 -10.8239 2.84217e-014 -2.84217e-014 11.8597 -1.96803 -0.338647 -28.5356 2.84217e-014 -2.84217e-014 0.67676 8.1023 0.167406 -24.5315 2.84217e-014 0 -3.33406 7.99536 3.67623 9.52968 1.42109e-014 0 1.23803 10.301 0.945172 8.88178e-016 -40.1884 -2.84217e-014 -4.85418 -6.4951 -3.37422 1.77636e-015 -39.9954 0 7.08201 -10.2889 2.50043 0 -6.19429 14.2945 1.49089e-016 -3.18055e-015 -0 -9.52968 0 0 -1.67687 5.66871 -0.55265 -3.55271e-015 -40.1884 2.84217e-014 3.09511 -0.853966 -0.176022 0 -39.9954 0 -4.92137 -12.5345 3.96115 3.55271e-015 -6.19429 14.2945 7.95139e-016 0 1.59028e-015 
